<mxfile host="app.diagrams.net" modified="2020-06-22T00:54:05.228Z" agent="5.0 (Windows NT 10.0; Win64; x64) AppleWebKit/537.36 (KHTML, like Gecko) Chrome/83.0.4103.106 Safari/537.36 Edg/83.0.478.54" etag="fHlI3ZuAjrhXFjfYXgma" version="13.3.0" type="github">
  <diagram id="cBCA9zAfeKpI5ZKPDVPD" name="Page-1">
    <mxGraphModel dx="2881" dy="2197" grid="1" gridSize="10" guides="1" tooltips="1" connect="1" arrows="1" fold="1" page="1" pageScale="1" pageWidth="850" pageHeight="1100" math="0" shadow="0">
      <root>
        <mxCell id="0" />
        <mxCell id="1" parent="0" />
        <mxCell id="ci4gH501nWpb8Ug6YYF2-18" value="Cougars OMDB&amp;nbsp;&amp;nbsp;" style="text;strokeColor=none;fillColor=none;html=1;fontSize=24;fontStyle=1;verticalAlign=middle;align=center;" parent="1" vertex="1">
          <mxGeometry x="90" y="-490" width="100" height="40" as="geometry" />
        </mxCell>
        <mxCell id="W0ogHApH_98TPy9APDF1-1" value="made" style="shape=rhombus;perimeter=rhombusPerimeter;whiteSpace=wrap;html=1;align=center;" parent="1" vertex="1">
          <mxGeometry x="610" y="310" width="120" height="60" as="geometry" />
        </mxCell>
        <mxCell id="W0ogHApH_98TPy9APDF1-5" value="acts" style="shape=rhombus;perimeter=rhombusPerimeter;whiteSpace=wrap;html=1;align=center;" parent="1" vertex="1">
          <mxGeometry x="730" y="260" width="120" height="60" as="geometry" />
        </mxCell>
        <mxCell id="iRqPwsFNaqmVoj-4rcDJ-1" value="sings" style="shape=rhombus;perimeter=rhombusPerimeter;whiteSpace=wrap;html=1;align=center;" vertex="1" parent="1">
          <mxGeometry x="370" y="-110" width="120" height="60" as="geometry" />
        </mxCell>
        <mxCell id="iRqPwsFNaqmVoj-4rcDJ-11" value="singer" style="whiteSpace=wrap;html=1;align=center;" vertex="1" parent="1">
          <mxGeometry x="240" y="-140" width="100" height="40" as="geometry" />
        </mxCell>
        <mxCell id="iRqPwsFNaqmVoj-4rcDJ-13" value="singerID" style="ellipse;whiteSpace=wrap;html=1;align=center;fontStyle=4;" vertex="1" parent="1">
          <mxGeometry x="170" y="-200" width="100" height="40" as="geometry" />
        </mxCell>
        <mxCell id="iRqPwsFNaqmVoj-4rcDJ-16" value="full_name" style="ellipse;whiteSpace=wrap;html=1;align=center;" vertex="1" parent="1">
          <mxGeometry x="300" y="-200" width="100" height="40" as="geometry" />
        </mxCell>
        <mxCell id="iRqPwsFNaqmVoj-4rcDJ-17" value="" style="endArrow=none;html=1;rounded=0;" edge="1" parent="1" source="iRqPwsFNaqmVoj-4rcDJ-13" target="iRqPwsFNaqmVoj-4rcDJ-11">
          <mxGeometry relative="1" as="geometry">
            <mxPoint x="240" y="-180" as="sourcePoint" />
            <mxPoint x="400" y="-180" as="targetPoint" />
          </mxGeometry>
        </mxCell>
        <mxCell id="iRqPwsFNaqmVoj-4rcDJ-18" value="" style="endArrow=none;html=1;rounded=0;" edge="1" parent="1" source="iRqPwsFNaqmVoj-4rcDJ-11" target="iRqPwsFNaqmVoj-4rcDJ-16">
          <mxGeometry relative="1" as="geometry">
            <mxPoint x="250.00438955365263" y="-240.00343022571133" as="sourcePoint" />
            <mxPoint x="323.06" y="-213.48000000000002" as="targetPoint" />
          </mxGeometry>
        </mxCell>
        <mxCell id="iRqPwsFNaqmVoj-4rcDJ-20" value="songID" style="ellipse;whiteSpace=wrap;html=1;align=center;fontStyle=4;" vertex="1" parent="1">
          <mxGeometry x="485" y="-140" width="100" height="40" as="geometry" />
        </mxCell>
        <mxCell id="iRqPwsFNaqmVoj-4rcDJ-21" value="" style="endArrow=none;html=1;rounded=0;" edge="1" source="iRqPwsFNaqmVoj-4rcDJ-20" parent="1" target="iRqPwsFNaqmVoj-4rcDJ-111">
          <mxGeometry relative="1" as="geometry">
            <mxPoint x="660" y="-155" as="sourcePoint" />
            <mxPoint x="605.7142857142858" y="-120" as="targetPoint" />
          </mxGeometry>
        </mxCell>
        <mxCell id="iRqPwsFNaqmVoj-4rcDJ-22" value="song_name" style="ellipse;whiteSpace=wrap;html=1;align=center;" vertex="1" parent="1">
          <mxGeometry x="600" y="-130" width="100" height="40" as="geometry" />
        </mxCell>
        <mxCell id="iRqPwsFNaqmVoj-4rcDJ-23" value="" style="endArrow=none;html=1;rounded=0;" edge="1" parent="1" source="iRqPwsFNaqmVoj-4rcDJ-111" target="iRqPwsFNaqmVoj-4rcDJ-22">
          <mxGeometry relative="1" as="geometry">
            <mxPoint x="642.5" y="-120" as="sourcePoint" />
            <mxPoint x="980" y="-155" as="targetPoint" />
          </mxGeometry>
        </mxCell>
        <mxCell id="iRqPwsFNaqmVoj-4rcDJ-24" value="" style="endArrow=none;html=1;rounded=0;" edge="1" parent="1" source="iRqPwsFNaqmVoj-4rcDJ-1" target="iRqPwsFNaqmVoj-4rcDJ-111">
          <mxGeometry relative="1" as="geometry">
            <mxPoint x="510" y="60" as="sourcePoint" />
            <mxPoint x="590" y="-94.73684210526312" as="targetPoint" />
          </mxGeometry>
        </mxCell>
        <mxCell id="iRqPwsFNaqmVoj-4rcDJ-25" value="" style="endArrow=none;html=1;rounded=0;" edge="1" parent="1" source="iRqPwsFNaqmVoj-4rcDJ-11" target="iRqPwsFNaqmVoj-4rcDJ-1">
          <mxGeometry relative="1" as="geometry">
            <mxPoint x="540" y="-120" as="sourcePoint" />
            <mxPoint x="700" y="-120" as="targetPoint" />
          </mxGeometry>
        </mxCell>
        <mxCell id="iRqPwsFNaqmVoj-4rcDJ-26" value="band" style="whiteSpace=wrap;html=1;align=center;" vertex="1" parent="1">
          <mxGeometry x="160" y="-10" width="100" height="40" as="geometry" />
        </mxCell>
        <mxCell id="iRqPwsFNaqmVoj-4rcDJ-27" value="bandID" style="ellipse;whiteSpace=wrap;html=1;align=center;fontStyle=4;" vertex="1" parent="1">
          <mxGeometry x="230" y="45" width="100" height="40" as="geometry" />
        </mxCell>
        <mxCell id="iRqPwsFNaqmVoj-4rcDJ-28" value="band_name" style="ellipse;whiteSpace=wrap;html=1;align=center;" vertex="1" parent="1">
          <mxGeometry x="100" y="45" width="100" height="40" as="geometry" />
        </mxCell>
        <mxCell id="iRqPwsFNaqmVoj-4rcDJ-29" value="" style="endArrow=none;html=1;rounded=0;" edge="1" parent="1" source="iRqPwsFNaqmVoj-4rcDJ-28" target="iRqPwsFNaqmVoj-4rcDJ-26">
          <mxGeometry relative="1" as="geometry">
            <mxPoint x="35" y="195" as="sourcePoint" />
            <mxPoint x="195" y="195" as="targetPoint" />
          </mxGeometry>
        </mxCell>
        <mxCell id="iRqPwsFNaqmVoj-4rcDJ-30" value="" style="endArrow=none;html=1;rounded=0;" edge="1" parent="1" source="iRqPwsFNaqmVoj-4rcDJ-26" target="iRqPwsFNaqmVoj-4rcDJ-27">
          <mxGeometry relative="1" as="geometry">
            <mxPoint x="125" y="205" as="sourcePoint" />
            <mxPoint x="285" y="205" as="targetPoint" />
          </mxGeometry>
        </mxCell>
        <mxCell id="iRqPwsFNaqmVoj-4rcDJ-31" value="lyrics" style="ellipse;whiteSpace=wrap;html=1;align=center;" vertex="1" parent="1">
          <mxGeometry x="720" y="-140" width="100" height="40" as="geometry" />
        </mxCell>
        <mxCell id="iRqPwsFNaqmVoj-4rcDJ-32" value="" style="endArrow=none;html=1;rounded=0;" edge="1" parent="1" source="iRqPwsFNaqmVoj-4rcDJ-111" target="iRqPwsFNaqmVoj-4rcDJ-31">
          <mxGeometry relative="1" as="geometry">
            <mxPoint x="680" y="-120" as="sourcePoint" />
            <mxPoint x="870" y="-20" as="targetPoint" />
          </mxGeometry>
        </mxCell>
        <mxCell id="iRqPwsFNaqmVoj-4rcDJ-33" value="band_member" style="shape=rhombus;perimeter=rhombusPerimeter;whiteSpace=wrap;html=1;align=center;" vertex="1" parent="1">
          <mxGeometry x="230" y="-80" width="120" height="60" as="geometry" />
        </mxCell>
        <mxCell id="iRqPwsFNaqmVoj-4rcDJ-34" value="" style="endArrow=none;html=1;rounded=0;" edge="1" parent="1" source="iRqPwsFNaqmVoj-4rcDJ-33" target="iRqPwsFNaqmVoj-4rcDJ-26">
          <mxGeometry relative="1" as="geometry">
            <mxPoint x="290" y="100" as="sourcePoint" />
            <mxPoint x="450" y="100" as="targetPoint" />
          </mxGeometry>
        </mxCell>
        <mxCell id="iRqPwsFNaqmVoj-4rcDJ-35" value="" style="endArrow=none;html=1;rounded=0;" edge="1" parent="1" source="iRqPwsFNaqmVoj-4rcDJ-33" target="iRqPwsFNaqmVoj-4rcDJ-11">
          <mxGeometry relative="1" as="geometry">
            <mxPoint x="100" y="-10" as="sourcePoint" />
            <mxPoint x="260" y="-10" as="targetPoint" />
          </mxGeometry>
        </mxCell>
        <mxCell id="iRqPwsFNaqmVoj-4rcDJ-36" value="lyricist" style="whiteSpace=wrap;html=1;align=center;" vertex="1" parent="1">
          <mxGeometry x="750" y="50" width="100" height="40" as="geometry" />
        </mxCell>
        <mxCell id="iRqPwsFNaqmVoj-4rcDJ-37" value="full_name" style="ellipse;whiteSpace=wrap;html=1;align=center;" vertex="1" parent="1">
          <mxGeometry x="805" y="110" width="100" height="40" as="geometry" />
        </mxCell>
        <mxCell id="iRqPwsFNaqmVoj-4rcDJ-38" value="lyricist_ID" style="ellipse;whiteSpace=wrap;html=1;align=center;fontStyle=4;" vertex="1" parent="1">
          <mxGeometry x="690" y="110" width="100" height="40" as="geometry" />
        </mxCell>
        <mxCell id="iRqPwsFNaqmVoj-4rcDJ-39" value="" style="endArrow=none;html=1;rounded=0;" edge="1" parent="1" source="iRqPwsFNaqmVoj-4rcDJ-38" target="iRqPwsFNaqmVoj-4rcDJ-36">
          <mxGeometry relative="1" as="geometry">
            <mxPoint x="555" y="-50" as="sourcePoint" />
            <mxPoint x="715" y="-50" as="targetPoint" />
          </mxGeometry>
        </mxCell>
        <mxCell id="iRqPwsFNaqmVoj-4rcDJ-40" value="" style="endArrow=none;html=1;rounded=0;" edge="1" parent="1" source="iRqPwsFNaqmVoj-4rcDJ-36" target="iRqPwsFNaqmVoj-4rcDJ-37">
          <mxGeometry relative="1" as="geometry">
            <mxPoint x="775" y="30" as="sourcePoint" />
            <mxPoint x="935" y="30" as="targetPoint" />
          </mxGeometry>
        </mxCell>
        <mxCell id="iRqPwsFNaqmVoj-4rcDJ-42" value="writer" style="shape=rhombus;perimeter=rhombusPerimeter;whiteSpace=wrap;html=1;align=center;" vertex="1" parent="1">
          <mxGeometry x="630" y="-10" width="120" height="60" as="geometry" />
        </mxCell>
        <mxCell id="iRqPwsFNaqmVoj-4rcDJ-43" value="" style="endArrow=none;html=1;rounded=0;" edge="1" parent="1" source="iRqPwsFNaqmVoj-4rcDJ-111" target="iRqPwsFNaqmVoj-4rcDJ-42">
          <mxGeometry relative="1" as="geometry">
            <mxPoint x="690" y="-89.28571428571422" as="sourcePoint" />
            <mxPoint x="950" y="-100" as="targetPoint" />
          </mxGeometry>
        </mxCell>
        <mxCell id="iRqPwsFNaqmVoj-4rcDJ-44" value="" style="endArrow=classic;html=1;" edge="1" parent="1" source="iRqPwsFNaqmVoj-4rcDJ-42" target="iRqPwsFNaqmVoj-4rcDJ-36">
          <mxGeometry width="50" height="50" relative="1" as="geometry">
            <mxPoint x="850" y="-70" as="sourcePoint" />
            <mxPoint x="900" y="-120" as="targetPoint" />
          </mxGeometry>
        </mxCell>
        <mxCell id="iRqPwsFNaqmVoj-4rcDJ-46" value="year" style="ellipse;whiteSpace=wrap;html=1;align=center;fontStyle=4;" vertex="1" parent="1">
          <mxGeometry x="870" y="365" width="100" height="40" as="geometry" />
        </mxCell>
        <mxCell id="iRqPwsFNaqmVoj-4rcDJ-47" value="" style="endArrow=none;html=1;rounded=0;" edge="1" parent="1" source="iRqPwsFNaqmVoj-4rcDJ-109" target="iRqPwsFNaqmVoj-4rcDJ-46">
          <mxGeometry relative="1" as="geometry">
            <mxPoint x="829.9999999999995" y="385" as="sourcePoint" />
            <mxPoint x="1240" y="395" as="targetPoint" />
          </mxGeometry>
        </mxCell>
        <mxCell id="iRqPwsFNaqmVoj-4rcDJ-49" value="" style="endArrow=none;html=1;rounded=0;" edge="1" parent="1" source="iRqPwsFNaqmVoj-4rcDJ-51" target="W0ogHApH_98TPy9APDF1-1">
          <mxGeometry relative="1" as="geometry">
            <mxPoint x="635" y="420.4000000000001" as="sourcePoint" />
            <mxPoint x="820" y="390" as="targetPoint" />
          </mxGeometry>
        </mxCell>
        <mxCell id="iRqPwsFNaqmVoj-4rcDJ-50" value="" style="endArrow=classic;html=1;" edge="1" parent="1" source="W0ogHApH_98TPy9APDF1-1" target="iRqPwsFNaqmVoj-4rcDJ-109">
          <mxGeometry width="50" height="50" relative="1" as="geometry">
            <mxPoint x="770" y="385" as="sourcePoint" />
            <mxPoint x="729.9999999999995" y="379.64285714285734" as="targetPoint" />
          </mxGeometry>
        </mxCell>
        <mxCell id="iRqPwsFNaqmVoj-4rcDJ-51" value="movie" style="whiteSpace=wrap;html=1;align=center;" vertex="1" parent="1">
          <mxGeometry x="500" y="290" width="100" height="40" as="geometry" />
        </mxCell>
        <mxCell id="iRqPwsFNaqmVoj-4rcDJ-52" value="native_name" style="ellipse;whiteSpace=wrap;html=1;align=center;fontStyle=4;" vertex="1" parent="1">
          <mxGeometry x="375" y="320" width="100" height="40" as="geometry" />
        </mxCell>
        <mxCell id="iRqPwsFNaqmVoj-4rcDJ-53" value="" style="endArrow=none;html=1;rounded=0;" edge="1" parent="1" source="iRqPwsFNaqmVoj-4rcDJ-52" target="iRqPwsFNaqmVoj-4rcDJ-51">
          <mxGeometry relative="1" as="geometry">
            <mxPoint x="530" y="270" as="sourcePoint" />
            <mxPoint x="690" y="270" as="targetPoint" />
          </mxGeometry>
        </mxCell>
        <mxCell id="iRqPwsFNaqmVoj-4rcDJ-54" value="english_name" style="ellipse;whiteSpace=wrap;html=1;align=center;" vertex="1" parent="1">
          <mxGeometry x="375" y="270" width="100" height="40" as="geometry" />
        </mxCell>
        <mxCell id="iRqPwsFNaqmVoj-4rcDJ-55" value="" style="endArrow=none;html=1;rounded=0;" edge="1" parent="1" source="iRqPwsFNaqmVoj-4rcDJ-54" target="iRqPwsFNaqmVoj-4rcDJ-51">
          <mxGeometry relative="1" as="geometry">
            <mxPoint x="660" y="320" as="sourcePoint" />
            <mxPoint x="820" y="320" as="targetPoint" />
          </mxGeometry>
        </mxCell>
        <mxCell id="iRqPwsFNaqmVoj-4rcDJ-56" value="trivia" style="ellipse;whiteSpace=wrap;html=1;align=center;" vertex="1" parent="1">
          <mxGeometry x="440" y="200" width="100" height="40" as="geometry" />
        </mxCell>
        <mxCell id="iRqPwsFNaqmVoj-4rcDJ-57" value="" style="endArrow=none;html=1;rounded=0;" edge="1" parent="1" source="iRqPwsFNaqmVoj-4rcDJ-56" target="iRqPwsFNaqmVoj-4rcDJ-51">
          <mxGeometry relative="1" as="geometry">
            <mxPoint x="660" y="310" as="sourcePoint" />
            <mxPoint x="820" y="310" as="targetPoint" />
          </mxGeometry>
        </mxCell>
        <mxCell id="iRqPwsFNaqmVoj-4rcDJ-58" value="plot" style="ellipse;whiteSpace=wrap;html=1;align=center;" vertex="1" parent="1">
          <mxGeometry x="590" y="200" width="100" height="40" as="geometry" />
        </mxCell>
        <mxCell id="iRqPwsFNaqmVoj-4rcDJ-59" value="" style="endArrow=none;html=1;rounded=0;" edge="1" parent="1" source="iRqPwsFNaqmVoj-4rcDJ-58" target="iRqPwsFNaqmVoj-4rcDJ-51">
          <mxGeometry relative="1" as="geometry">
            <mxPoint x="760" y="330" as="sourcePoint" />
            <mxPoint x="920" y="330" as="targetPoint" />
          </mxGeometry>
        </mxCell>
        <mxCell id="iRqPwsFNaqmVoj-4rcDJ-60" value="actor" style="whiteSpace=wrap;html=1;align=center;" vertex="1" parent="1">
          <mxGeometry x="970" y="150" width="100" height="40" as="geometry" />
        </mxCell>
        <mxCell id="iRqPwsFNaqmVoj-4rcDJ-61" value="actress" style="whiteSpace=wrap;html=1;align=center;" vertex="1" parent="1">
          <mxGeometry x="970" y="210" width="100" height="40" as="geometry" />
        </mxCell>
        <mxCell id="iRqPwsFNaqmVoj-4rcDJ-63" value="actressID" style="ellipse;whiteSpace=wrap;html=1;align=center;fontStyle=4;" vertex="1" parent="1">
          <mxGeometry x="920" y="295" width="100" height="40" as="geometry" />
        </mxCell>
        <mxCell id="iRqPwsFNaqmVoj-4rcDJ-64" value="actorID" style="ellipse;whiteSpace=wrap;html=1;align=center;fontStyle=4;" vertex="1" parent="1">
          <mxGeometry x="920" y="70" width="100" height="40" as="geometry" />
        </mxCell>
        <mxCell id="iRqPwsFNaqmVoj-4rcDJ-65" value="full_name" style="ellipse;whiteSpace=wrap;html=1;align=center;" vertex="1" parent="1">
          <mxGeometry x="1030" y="70" width="100" height="40" as="geometry" />
        </mxCell>
        <mxCell id="iRqPwsFNaqmVoj-4rcDJ-66" value="full_name" style="ellipse;whiteSpace=wrap;html=1;align=center;" vertex="1" parent="1">
          <mxGeometry x="1030" y="295" width="100" height="40" as="geometry" />
        </mxCell>
        <mxCell id="iRqPwsFNaqmVoj-4rcDJ-67" value="" style="endArrow=none;html=1;rounded=0;" edge="1" parent="1" source="iRqPwsFNaqmVoj-4rcDJ-64" target="iRqPwsFNaqmVoj-4rcDJ-60">
          <mxGeometry relative="1" as="geometry">
            <mxPoint x="1080" y="130" as="sourcePoint" />
            <mxPoint x="1240" y="130" as="targetPoint" />
          </mxGeometry>
        </mxCell>
        <mxCell id="iRqPwsFNaqmVoj-4rcDJ-68" value="" style="endArrow=none;html=1;rounded=0;" edge="1" parent="1" source="iRqPwsFNaqmVoj-4rcDJ-60" target="iRqPwsFNaqmVoj-4rcDJ-65">
          <mxGeometry relative="1" as="geometry">
            <mxPoint x="1110" y="120" as="sourcePoint" />
            <mxPoint x="1270" y="120" as="targetPoint" />
          </mxGeometry>
        </mxCell>
        <mxCell id="iRqPwsFNaqmVoj-4rcDJ-69" value="" style="endArrow=none;html=1;rounded=0;" edge="1" parent="1" source="iRqPwsFNaqmVoj-4rcDJ-61" target="iRqPwsFNaqmVoj-4rcDJ-63">
          <mxGeometry relative="1" as="geometry">
            <mxPoint x="1200" y="195" as="sourcePoint" />
            <mxPoint x="1360" y="195" as="targetPoint" />
          </mxGeometry>
        </mxCell>
        <mxCell id="iRqPwsFNaqmVoj-4rcDJ-70" value="" style="endArrow=none;html=1;rounded=0;" edge="1" parent="1" source="iRqPwsFNaqmVoj-4rcDJ-66" target="iRqPwsFNaqmVoj-4rcDJ-61">
          <mxGeometry relative="1" as="geometry">
            <mxPoint x="1160" y="245" as="sourcePoint" />
            <mxPoint x="1320" y="245" as="targetPoint" />
          </mxGeometry>
        </mxCell>
        <mxCell id="iRqPwsFNaqmVoj-4rcDJ-73" value="" style="endArrow=none;html=1;rounded=0;" edge="1" parent="1" source="W0ogHApH_98TPy9APDF1-5" target="iRqPwsFNaqmVoj-4rcDJ-60">
          <mxGeometry relative="1" as="geometry">
            <mxPoint x="820" y="220" as="sourcePoint" />
            <mxPoint x="980" y="220" as="targetPoint" />
          </mxGeometry>
        </mxCell>
        <mxCell id="iRqPwsFNaqmVoj-4rcDJ-74" value="" style="endArrow=none;html=1;rounded=0;" edge="1" parent="1" source="iRqPwsFNaqmVoj-4rcDJ-51" target="W0ogHApH_98TPy9APDF1-5">
          <mxGeometry relative="1" as="geometry">
            <mxPoint x="720" y="220" as="sourcePoint" />
            <mxPoint x="880" y="220" as="targetPoint" />
          </mxGeometry>
        </mxCell>
        <mxCell id="iRqPwsFNaqmVoj-4rcDJ-75" value="" style="endArrow=none;html=1;rounded=0;" edge="1" parent="1" source="iRqPwsFNaqmVoj-4rcDJ-61" target="W0ogHApH_98TPy9APDF1-5">
          <mxGeometry relative="1" as="geometry">
            <mxPoint x="710" y="220" as="sourcePoint" />
            <mxPoint x="870" y="220" as="targetPoint" />
          </mxGeometry>
        </mxCell>
        <mxCell id="iRqPwsFNaqmVoj-4rcDJ-76" value="played" style="shape=rhombus;perimeter=rhombusPerimeter;whiteSpace=wrap;html=1;align=center;" vertex="1" parent="1">
          <mxGeometry x="510" y="70" width="120" height="60" as="geometry" />
        </mxCell>
        <mxCell id="iRqPwsFNaqmVoj-4rcDJ-77" value="" style="endArrow=none;html=1;rounded=0;" edge="1" parent="1" source="iRqPwsFNaqmVoj-4rcDJ-76" target="iRqPwsFNaqmVoj-4rcDJ-111">
          <mxGeometry relative="1" as="geometry">
            <mxPoint x="550" y="-50" as="sourcePoint" />
            <mxPoint x="630" y="-80" as="targetPoint" />
          </mxGeometry>
        </mxCell>
        <mxCell id="iRqPwsFNaqmVoj-4rcDJ-78" value="" style="endArrow=none;html=1;rounded=0;" edge="1" parent="1" source="iRqPwsFNaqmVoj-4rcDJ-51" target="iRqPwsFNaqmVoj-4rcDJ-76">
          <mxGeometry relative="1" as="geometry">
            <mxPoint x="310" y="130" as="sourcePoint" />
            <mxPoint x="470" y="130" as="targetPoint" />
          </mxGeometry>
        </mxCell>
        <mxCell id="iRqPwsFNaqmVoj-4rcDJ-79" value="video_link" style="whiteSpace=wrap;html=1;align=center;" vertex="1" parent="1">
          <mxGeometry x="60" y="280" width="100" height="40" as="geometry" />
        </mxCell>
        <mxCell id="iRqPwsFNaqmVoj-4rcDJ-80" value="linkID" style="ellipse;whiteSpace=wrap;html=1;align=center;fontStyle=4;" vertex="1" parent="1">
          <mxGeometry x="-60" y="290" width="100" height="40" as="geometry" />
        </mxCell>
        <mxCell id="iRqPwsFNaqmVoj-4rcDJ-81" value="URL" style="ellipse;whiteSpace=wrap;html=1;align=center;" vertex="1" parent="1">
          <mxGeometry x="-50" y="360" width="100" height="40" as="geometry" />
        </mxCell>
        <mxCell id="iRqPwsFNaqmVoj-4rcDJ-82" value="" style="endArrow=none;html=1;rounded=0;" edge="1" parent="1" source="iRqPwsFNaqmVoj-4rcDJ-80" target="iRqPwsFNaqmVoj-4rcDJ-79">
          <mxGeometry relative="1" as="geometry">
            <mxPoint x="-110" y="235" as="sourcePoint" />
            <mxPoint x="50" y="235" as="targetPoint" />
          </mxGeometry>
        </mxCell>
        <mxCell id="iRqPwsFNaqmVoj-4rcDJ-83" value="" style="endArrow=none;html=1;rounded=0;" edge="1" parent="1" source="iRqPwsFNaqmVoj-4rcDJ-79" target="iRqPwsFNaqmVoj-4rcDJ-81">
          <mxGeometry relative="1" as="geometry">
            <mxPoint x="280" y="315" as="sourcePoint" />
            <mxPoint x="440" y="315" as="targetPoint" />
          </mxGeometry>
        </mxCell>
        <mxCell id="iRqPwsFNaqmVoj-4rcDJ-85" value="audio_link" style="whiteSpace=wrap;html=1;align=center;" vertex="1" parent="1">
          <mxGeometry x="60" y="170" width="100" height="40" as="geometry" />
        </mxCell>
        <mxCell id="iRqPwsFNaqmVoj-4rcDJ-86" value="linkID" style="ellipse;whiteSpace=wrap;html=1;align=center;fontStyle=4;" vertex="1" parent="1">
          <mxGeometry x="-20" y="225" width="100" height="40" as="geometry" />
        </mxCell>
        <mxCell id="iRqPwsFNaqmVoj-4rcDJ-87" value="URL" style="ellipse;whiteSpace=wrap;html=1;align=center;" vertex="1" parent="1">
          <mxGeometry x="-20" y="110" width="100" height="40" as="geometry" />
        </mxCell>
        <mxCell id="iRqPwsFNaqmVoj-4rcDJ-88" value="" style="endArrow=none;html=1;rounded=0;" edge="1" source="iRqPwsFNaqmVoj-4rcDJ-86" target="iRqPwsFNaqmVoj-4rcDJ-85" parent="1">
          <mxGeometry relative="1" as="geometry">
            <mxPoint x="-110" y="125" as="sourcePoint" />
            <mxPoint x="50" y="125" as="targetPoint" />
          </mxGeometry>
        </mxCell>
        <mxCell id="iRqPwsFNaqmVoj-4rcDJ-89" value="" style="endArrow=none;html=1;rounded=0;" edge="1" source="iRqPwsFNaqmVoj-4rcDJ-85" target="iRqPwsFNaqmVoj-4rcDJ-87" parent="1">
          <mxGeometry relative="1" as="geometry">
            <mxPoint x="280" y="205" as="sourcePoint" />
            <mxPoint x="440" y="205" as="targetPoint" />
          </mxGeometry>
        </mxCell>
        <mxCell id="iRqPwsFNaqmVoj-4rcDJ-91" value="promotes" style="shape=rhombus;perimeter=rhombusPerimeter;whiteSpace=wrap;html=1;align=center;" vertex="1" parent="1">
          <mxGeometry x="245" y="130" width="120" height="60" as="geometry" />
        </mxCell>
        <mxCell id="iRqPwsFNaqmVoj-4rcDJ-95" value="" style="endArrow=classic;html=1;" edge="1" parent="1" source="iRqPwsFNaqmVoj-4rcDJ-91" target="iRqPwsFNaqmVoj-4rcDJ-111">
          <mxGeometry width="50" height="50" relative="1" as="geometry">
            <mxPoint x="380" y="90" as="sourcePoint" />
            <mxPoint x="616.5517241379312" y="-80" as="targetPoint" />
          </mxGeometry>
        </mxCell>
        <mxCell id="iRqPwsFNaqmVoj-4rcDJ-96" value="" style="endArrow=classic;html=1;" edge="1" parent="1" source="iRqPwsFNaqmVoj-4rcDJ-91" target="iRqPwsFNaqmVoj-4rcDJ-85">
          <mxGeometry width="50" height="50" relative="1" as="geometry">
            <mxPoint x="170" y="410" as="sourcePoint" />
            <mxPoint x="220" y="360" as="targetPoint" />
          </mxGeometry>
        </mxCell>
        <mxCell id="iRqPwsFNaqmVoj-4rcDJ-97" value="" style="endArrow=classic;html=1;" edge="1" parent="1" source="iRqPwsFNaqmVoj-4rcDJ-91" target="iRqPwsFNaqmVoj-4rcDJ-51">
          <mxGeometry width="50" height="50" relative="1" as="geometry">
            <mxPoint x="160" y="400" as="sourcePoint" />
            <mxPoint x="210" y="350" as="targetPoint" />
          </mxGeometry>
        </mxCell>
        <mxCell id="iRqPwsFNaqmVoj-4rcDJ-98" value="" style="endArrow=classic;html=1;" edge="1" parent="1" source="iRqPwsFNaqmVoj-4rcDJ-91" target="iRqPwsFNaqmVoj-4rcDJ-79">
          <mxGeometry width="50" height="50" relative="1" as="geometry">
            <mxPoint x="260" y="290" as="sourcePoint" />
            <mxPoint x="310" y="240" as="targetPoint" />
          </mxGeometry>
        </mxCell>
        <mxCell id="iRqPwsFNaqmVoj-4rcDJ-99" value="photo" style="ellipse;whiteSpace=wrap;html=1;align=center;" vertex="1" parent="1">
          <mxGeometry x="-20" y="440" width="100" height="40" as="geometry" />
        </mxCell>
        <mxCell id="iRqPwsFNaqmVoj-4rcDJ-100" value="photo" style="whiteSpace=wrap;html=1;align=center;" vertex="1" parent="1">
          <mxGeometry x="70" y="377.5" width="100" height="40" as="geometry" />
        </mxCell>
        <mxCell id="iRqPwsFNaqmVoj-4rcDJ-101" value="" style="endArrow=none;html=1;rounded=0;" edge="1" parent="1" source="iRqPwsFNaqmVoj-4rcDJ-100" target="iRqPwsFNaqmVoj-4rcDJ-99">
          <mxGeometry relative="1" as="geometry">
            <mxPoint x="-120" y="580" as="sourcePoint" />
            <mxPoint x="40" y="580" as="targetPoint" />
          </mxGeometry>
        </mxCell>
        <mxCell id="iRqPwsFNaqmVoj-4rcDJ-102" value="photoID" style="ellipse;whiteSpace=wrap;html=1;align=center;fontStyle=4;" vertex="1" parent="1">
          <mxGeometry x="50" y="490" width="100" height="40" as="geometry" />
        </mxCell>
        <mxCell id="iRqPwsFNaqmVoj-4rcDJ-103" value="" style="endArrow=none;html=1;rounded=0;" edge="1" parent="1" source="iRqPwsFNaqmVoj-4rcDJ-102" target="iRqPwsFNaqmVoj-4rcDJ-100">
          <mxGeometry relative="1" as="geometry">
            <mxPoint x="330" y="590" as="sourcePoint" />
            <mxPoint x="490" y="590" as="targetPoint" />
          </mxGeometry>
        </mxCell>
        <mxCell id="iRqPwsFNaqmVoj-4rcDJ-104" value="poster" style="whiteSpace=wrap;html=1;align=center;" vertex="1" parent="1">
          <mxGeometry x="250" y="250" width="100" height="40" as="geometry" />
        </mxCell>
        <mxCell id="iRqPwsFNaqmVoj-4rcDJ-105" value="poster" style="ellipse;whiteSpace=wrap;html=1;align=center;" vertex="1" parent="1">
          <mxGeometry x="270" y="310" width="100" height="40" as="geometry" />
        </mxCell>
        <mxCell id="iRqPwsFNaqmVoj-4rcDJ-106" value="posterID" style="ellipse;whiteSpace=wrap;html=1;align=center;fontStyle=4;" vertex="1" parent="1">
          <mxGeometry x="170" y="330" width="100" height="40" as="geometry" />
        </mxCell>
        <mxCell id="iRqPwsFNaqmVoj-4rcDJ-107" value="" style="endArrow=none;html=1;rounded=0;" edge="1" parent="1" source="iRqPwsFNaqmVoj-4rcDJ-104" target="iRqPwsFNaqmVoj-4rcDJ-106">
          <mxGeometry relative="1" as="geometry">
            <mxPoint x="190" y="730" as="sourcePoint" />
            <mxPoint x="350" y="730" as="targetPoint" />
          </mxGeometry>
        </mxCell>
        <mxCell id="iRqPwsFNaqmVoj-4rcDJ-108" value="" style="endArrow=none;html=1;rounded=0;" edge="1" parent="1" source="iRqPwsFNaqmVoj-4rcDJ-104" target="iRqPwsFNaqmVoj-4rcDJ-105">
          <mxGeometry relative="1" as="geometry">
            <mxPoint x="230" y="750" as="sourcePoint" />
            <mxPoint x="390" y="750" as="targetPoint" />
          </mxGeometry>
        </mxCell>
        <mxCell id="iRqPwsFNaqmVoj-4rcDJ-109" value="year" style="shape=ext;margin=3;double=1;whiteSpace=wrap;html=1;align=center;" vertex="1" parent="1">
          <mxGeometry x="740" y="360" width="100" height="40" as="geometry" />
        </mxCell>
        <mxCell id="iRqPwsFNaqmVoj-4rcDJ-111" value="song" style="shape=ext;margin=3;double=1;whiteSpace=wrap;html=1;align=center;" vertex="1" parent="1">
          <mxGeometry x="520.0042857142857" y="-40" width="100" height="40" as="geometry" />
        </mxCell>
        <mxCell id="iRqPwsFNaqmVoj-4rcDJ-113" value="" style="endArrow=classic;html=1;" edge="1" parent="1" source="iRqPwsFNaqmVoj-4rcDJ-91" target="iRqPwsFNaqmVoj-4rcDJ-100">
          <mxGeometry width="50" height="50" relative="1" as="geometry">
            <mxPoint x="250" y="340" as="sourcePoint" />
            <mxPoint x="300" y="290" as="targetPoint" />
          </mxGeometry>
        </mxCell>
        <mxCell id="iRqPwsFNaqmVoj-4rcDJ-114" value="" style="endArrow=classic;html=1;" edge="1" parent="1" source="iRqPwsFNaqmVoj-4rcDJ-91" target="iRqPwsFNaqmVoj-4rcDJ-104">
          <mxGeometry width="50" height="50" relative="1" as="geometry">
            <mxPoint x="280" y="460" as="sourcePoint" />
            <mxPoint x="330" y="410" as="targetPoint" />
          </mxGeometry>
        </mxCell>
        <mxCell id="iRqPwsFNaqmVoj-4rcDJ-115" value="keywords" style="whiteSpace=wrap;html=1;align=center;" vertex="1" parent="1">
          <mxGeometry x="160" y="557.5" width="100" height="40" as="geometry" />
        </mxCell>
        <mxCell id="iRqPwsFNaqmVoj-4rcDJ-116" value="keyword" style="ellipse;whiteSpace=wrap;html=1;align=center;" vertex="1" parent="1">
          <mxGeometry x="100" y="610" width="100" height="40" as="geometry" />
        </mxCell>
        <mxCell id="iRqPwsFNaqmVoj-4rcDJ-117" value="keywordID" style="ellipse;whiteSpace=wrap;html=1;align=center;fontStyle=4;" vertex="1" parent="1">
          <mxGeometry x="210" y="610" width="100" height="40" as="geometry" />
        </mxCell>
        <mxCell id="iRqPwsFNaqmVoj-4rcDJ-118" value="" style="endArrow=none;html=1;rounded=0;" edge="1" parent="1" source="iRqPwsFNaqmVoj-4rcDJ-115" target="iRqPwsFNaqmVoj-4rcDJ-116">
          <mxGeometry relative="1" as="geometry">
            <mxPoint x="330" y="660" as="sourcePoint" />
            <mxPoint x="490" y="660" as="targetPoint" />
          </mxGeometry>
        </mxCell>
        <mxCell id="iRqPwsFNaqmVoj-4rcDJ-119" value="" style="endArrow=none;html=1;rounded=0;" edge="1" parent="1" source="iRqPwsFNaqmVoj-4rcDJ-115" target="iRqPwsFNaqmVoj-4rcDJ-117">
          <mxGeometry relative="1" as="geometry">
            <mxPoint x="280" y="690" as="sourcePoint" />
            <mxPoint x="440" y="690" as="targetPoint" />
          </mxGeometry>
        </mxCell>
        <mxCell id="iRqPwsFNaqmVoj-4rcDJ-120" value="genre" style="whiteSpace=wrap;html=1;align=center;" vertex="1" parent="1">
          <mxGeometry x="190" y="387.5" width="100" height="40" as="geometry" />
        </mxCell>
        <mxCell id="iRqPwsFNaqmVoj-4rcDJ-121" value="genre" style="ellipse;whiteSpace=wrap;html=1;align=center;" vertex="1" parent="1">
          <mxGeometry x="135" y="447.5" width="100" height="40" as="geometry" />
        </mxCell>
        <mxCell id="iRqPwsFNaqmVoj-4rcDJ-122" value="genreID" style="ellipse;whiteSpace=wrap;html=1;align=center;fontStyle=4;" vertex="1" parent="1">
          <mxGeometry x="245" y="447.5" width="100" height="40" as="geometry" />
        </mxCell>
        <mxCell id="iRqPwsFNaqmVoj-4rcDJ-123" value="" style="endArrow=none;html=1;rounded=0;" edge="1" parent="1" source="iRqPwsFNaqmVoj-4rcDJ-120" target="iRqPwsFNaqmVoj-4rcDJ-121">
          <mxGeometry relative="1" as="geometry">
            <mxPoint x="-20" y="725" as="sourcePoint" />
            <mxPoint x="140" y="725" as="targetPoint" />
          </mxGeometry>
        </mxCell>
        <mxCell id="iRqPwsFNaqmVoj-4rcDJ-124" value="" style="endArrow=none;html=1;rounded=0;" edge="1" parent="1" source="iRqPwsFNaqmVoj-4rcDJ-120" target="iRqPwsFNaqmVoj-4rcDJ-122">
          <mxGeometry relative="1" as="geometry">
            <mxPoint x="60" y="715" as="sourcePoint" />
            <mxPoint x="220" y="715" as="targetPoint" />
          </mxGeometry>
        </mxCell>
        <mxCell id="iRqPwsFNaqmVoj-4rcDJ-125" value="country" style="whiteSpace=wrap;html=1;align=center;" vertex="1" parent="1">
          <mxGeometry x="325" y="670" width="100" height="40" as="geometry" />
        </mxCell>
        <mxCell id="iRqPwsFNaqmVoj-4rcDJ-126" value="countryID" style="ellipse;whiteSpace=wrap;html=1;align=center;fontStyle=4;" vertex="1" parent="1">
          <mxGeometry x="260" y="737.5" width="100" height="40" as="geometry" />
        </mxCell>
        <mxCell id="iRqPwsFNaqmVoj-4rcDJ-127" value="country" style="ellipse;whiteSpace=wrap;html=1;align=center;" vertex="1" parent="1">
          <mxGeometry x="390" y="737.5" width="100" height="40" as="geometry" />
        </mxCell>
        <mxCell id="iRqPwsFNaqmVoj-4rcDJ-129" value="" style="endArrow=none;html=1;rounded=0;" edge="1" parent="1" source="iRqPwsFNaqmVoj-4rcDJ-125" target="iRqPwsFNaqmVoj-4rcDJ-126">
          <mxGeometry relative="1" as="geometry">
            <mxPoint x="480" y="682.5" as="sourcePoint" />
            <mxPoint x="640" y="682.5" as="targetPoint" />
          </mxGeometry>
        </mxCell>
        <mxCell id="iRqPwsFNaqmVoj-4rcDJ-130" value="" style="endArrow=none;html=1;rounded=0;" edge="1" parent="1" source="iRqPwsFNaqmVoj-4rcDJ-125" target="iRqPwsFNaqmVoj-4rcDJ-127">
          <mxGeometry relative="1" as="geometry">
            <mxPoint x="500" y="622.5" as="sourcePoint" />
            <mxPoint x="660" y="622.5" as="targetPoint" />
          </mxGeometry>
        </mxCell>
        <mxCell id="iRqPwsFNaqmVoj-4rcDJ-131" value="language" style="whiteSpace=wrap;html=1;align=center;" vertex="1" parent="1">
          <mxGeometry x="490" y="577.5" width="100" height="40" as="geometry" />
        </mxCell>
        <mxCell id="iRqPwsFNaqmVoj-4rcDJ-132" value="languageID" style="ellipse;whiteSpace=wrap;html=1;align=center;fontStyle=4;" vertex="1" parent="1">
          <mxGeometry x="450" y="670" width="100" height="40" as="geometry" />
        </mxCell>
        <mxCell id="iRqPwsFNaqmVoj-4rcDJ-133" value="language" style="ellipse;whiteSpace=wrap;html=1;align=center;" vertex="1" parent="1">
          <mxGeometry x="560" y="670" width="100" height="40" as="geometry" />
        </mxCell>
        <mxCell id="iRqPwsFNaqmVoj-4rcDJ-134" value="" style="endArrow=none;html=1;rounded=0;" edge="1" source="iRqPwsFNaqmVoj-4rcDJ-131" target="iRqPwsFNaqmVoj-4rcDJ-132" parent="1">
          <mxGeometry relative="1" as="geometry">
            <mxPoint x="535" y="740" as="sourcePoint" />
            <mxPoint x="695" y="740" as="targetPoint" />
          </mxGeometry>
        </mxCell>
        <mxCell id="iRqPwsFNaqmVoj-4rcDJ-135" value="" style="endArrow=none;html=1;rounded=0;" edge="1" source="iRqPwsFNaqmVoj-4rcDJ-131" target="iRqPwsFNaqmVoj-4rcDJ-133" parent="1">
          <mxGeometry relative="1" as="geometry">
            <mxPoint x="555" y="680" as="sourcePoint" />
            <mxPoint x="715" y="680" as="targetPoint" />
          </mxGeometry>
        </mxCell>
        <mxCell id="iRqPwsFNaqmVoj-4rcDJ-136" value="producer" style="whiteSpace=wrap;html=1;align=center;" vertex="1" parent="1">
          <mxGeometry x="670" y="505" width="100" height="40" as="geometry" />
        </mxCell>
        <mxCell id="iRqPwsFNaqmVoj-4rcDJ-137" value="producerID" style="ellipse;whiteSpace=wrap;html=1;align=center;fontStyle=4;" vertex="1" parent="1">
          <mxGeometry x="610" y="602.5" width="100" height="40" as="geometry" />
        </mxCell>
        <mxCell id="iRqPwsFNaqmVoj-4rcDJ-138" value="full_name" style="ellipse;whiteSpace=wrap;html=1;align=center;" vertex="1" parent="1">
          <mxGeometry x="720" y="602.5" width="100" height="40" as="geometry" />
        </mxCell>
        <mxCell id="iRqPwsFNaqmVoj-4rcDJ-139" value="" style="endArrow=none;html=1;rounded=0;" edge="1" source="iRqPwsFNaqmVoj-4rcDJ-136" target="iRqPwsFNaqmVoj-4rcDJ-137" parent="1">
          <mxGeometry relative="1" as="geometry">
            <mxPoint x="770" y="560" as="sourcePoint" />
            <mxPoint x="930" y="560" as="targetPoint" />
          </mxGeometry>
        </mxCell>
        <mxCell id="iRqPwsFNaqmVoj-4rcDJ-140" value="" style="endArrow=none;html=1;rounded=0;" edge="1" source="iRqPwsFNaqmVoj-4rcDJ-136" target="iRqPwsFNaqmVoj-4rcDJ-138" parent="1">
          <mxGeometry relative="1" as="geometry">
            <mxPoint x="790" y="500" as="sourcePoint" />
            <mxPoint x="950" y="500" as="targetPoint" />
          </mxGeometry>
        </mxCell>
        <mxCell id="iRqPwsFNaqmVoj-4rcDJ-141" value="director" style="whiteSpace=wrap;html=1;align=center;" vertex="1" parent="1">
          <mxGeometry x="935" y="417.5" width="100" height="40" as="geometry" />
        </mxCell>
        <mxCell id="iRqPwsFNaqmVoj-4rcDJ-142" value="directorID" style="ellipse;whiteSpace=wrap;html=1;align=center;fontStyle=4;" vertex="1" parent="1">
          <mxGeometry x="865" y="502.5" width="100" height="40" as="geometry" />
        </mxCell>
        <mxCell id="iRqPwsFNaqmVoj-4rcDJ-143" value="full_name" style="ellipse;whiteSpace=wrap;html=1;align=center;" vertex="1" parent="1">
          <mxGeometry x="995" y="502.5" width="100" height="40" as="geometry" />
        </mxCell>
        <mxCell id="iRqPwsFNaqmVoj-4rcDJ-144" value="" style="endArrow=none;html=1;rounded=0;" edge="1" source="iRqPwsFNaqmVoj-4rcDJ-141" target="iRqPwsFNaqmVoj-4rcDJ-142" parent="1">
          <mxGeometry relative="1" as="geometry">
            <mxPoint x="1085" y="447.5" as="sourcePoint" />
            <mxPoint x="1245" y="447.5" as="targetPoint" />
          </mxGeometry>
        </mxCell>
        <mxCell id="iRqPwsFNaqmVoj-4rcDJ-145" value="" style="endArrow=none;html=1;rounded=0;" edge="1" source="iRqPwsFNaqmVoj-4rcDJ-141" target="iRqPwsFNaqmVoj-4rcDJ-143" parent="1">
          <mxGeometry relative="1" as="geometry">
            <mxPoint x="1105" y="387.5" as="sourcePoint" />
            <mxPoint x="1265" y="387.5" as="targetPoint" />
          </mxGeometry>
        </mxCell>
        <mxCell id="iRqPwsFNaqmVoj-4rcDJ-146" value="music_director" style="whiteSpace=wrap;html=1;align=center;" vertex="1" parent="1">
          <mxGeometry x="910" y="590" width="100" height="40" as="geometry" />
        </mxCell>
        <mxCell id="iRqPwsFNaqmVoj-4rcDJ-147" value="directorID" style="ellipse;whiteSpace=wrap;html=1;align=center;fontStyle=4;" vertex="1" parent="1">
          <mxGeometry x="840" y="675" width="100" height="40" as="geometry" />
        </mxCell>
        <mxCell id="iRqPwsFNaqmVoj-4rcDJ-148" value="full_name" style="ellipse;whiteSpace=wrap;html=1;align=center;" vertex="1" parent="1">
          <mxGeometry x="970" y="675" width="100" height="40" as="geometry" />
        </mxCell>
        <mxCell id="iRqPwsFNaqmVoj-4rcDJ-149" value="" style="endArrow=none;html=1;rounded=0;" edge="1" source="iRqPwsFNaqmVoj-4rcDJ-146" target="iRqPwsFNaqmVoj-4rcDJ-147" parent="1">
          <mxGeometry relative="1" as="geometry">
            <mxPoint x="1060" y="620" as="sourcePoint" />
            <mxPoint x="1220" y="620" as="targetPoint" />
          </mxGeometry>
        </mxCell>
        <mxCell id="iRqPwsFNaqmVoj-4rcDJ-150" value="" style="endArrow=none;html=1;rounded=0;" edge="1" source="iRqPwsFNaqmVoj-4rcDJ-146" target="iRqPwsFNaqmVoj-4rcDJ-148" parent="1">
          <mxGeometry relative="1" as="geometry">
            <mxPoint x="1080" y="560" as="sourcePoint" />
            <mxPoint x="1240" y="560" as="targetPoint" />
          </mxGeometry>
        </mxCell>
        <mxCell id="iRqPwsFNaqmVoj-4rcDJ-151" value="directs" style="shape=rhombus;perimeter=rhombusPerimeter;whiteSpace=wrap;html=1;align=center;" vertex="1" parent="1">
          <mxGeometry x="580" y="377.5" width="120" height="60" as="geometry" />
        </mxCell>
        <mxCell id="iRqPwsFNaqmVoj-4rcDJ-152" value="" style="endArrow=classic;html=1;" edge="1" parent="1" source="iRqPwsFNaqmVoj-4rcDJ-151" target="iRqPwsFNaqmVoj-4rcDJ-141">
          <mxGeometry width="50" height="50" relative="1" as="geometry">
            <mxPoint x="810" y="610" as="sourcePoint" />
            <mxPoint x="860" y="560" as="targetPoint" />
          </mxGeometry>
        </mxCell>
        <mxCell id="iRqPwsFNaqmVoj-4rcDJ-153" value="" style="endArrow=none;html=1;rounded=0;" edge="1" parent="1" source="iRqPwsFNaqmVoj-4rcDJ-51" target="iRqPwsFNaqmVoj-4rcDJ-151">
          <mxGeometry relative="1" as="geometry">
            <mxPoint x="470" y="400" as="sourcePoint" />
            <mxPoint x="630" y="400" as="targetPoint" />
          </mxGeometry>
        </mxCell>
        <mxCell id="iRqPwsFNaqmVoj-4rcDJ-154" value="produces" style="shape=rhombus;perimeter=rhombusPerimeter;whiteSpace=wrap;html=1;align=center;" vertex="1" parent="1">
          <mxGeometry x="540" y="437.5" width="120" height="60" as="geometry" />
        </mxCell>
        <mxCell id="iRqPwsFNaqmVoj-4rcDJ-155" value="" style="endArrow=classic;html=1;" edge="1" parent="1" source="iRqPwsFNaqmVoj-4rcDJ-154" target="iRqPwsFNaqmVoj-4rcDJ-136">
          <mxGeometry width="50" height="50" relative="1" as="geometry">
            <mxPoint x="660" y="660" as="sourcePoint" />
            <mxPoint x="710" y="610" as="targetPoint" />
          </mxGeometry>
        </mxCell>
        <mxCell id="iRqPwsFNaqmVoj-4rcDJ-156" value="" style="endArrow=none;html=1;rounded=0;" edge="1" parent="1" source="iRqPwsFNaqmVoj-4rcDJ-51" target="iRqPwsFNaqmVoj-4rcDJ-154">
          <mxGeometry relative="1" as="geometry">
            <mxPoint x="430" y="500" as="sourcePoint" />
            <mxPoint x="590" y="500" as="targetPoint" />
          </mxGeometry>
        </mxCell>
        <mxCell id="iRqPwsFNaqmVoj-4rcDJ-157" value="" style="endArrow=classic;html=1;" edge="1" parent="1" source="iRqPwsFNaqmVoj-4rcDJ-151" target="iRqPwsFNaqmVoj-4rcDJ-146">
          <mxGeometry width="50" height="50" relative="1" as="geometry">
            <mxPoint x="730" y="530" as="sourcePoint" />
            <mxPoint x="780" y="480" as="targetPoint" />
          </mxGeometry>
        </mxCell>
        <mxCell id="iRqPwsFNaqmVoj-4rcDJ-158" value="spoken" style="shape=rhombus;perimeter=rhombusPerimeter;whiteSpace=wrap;html=1;align=center;" vertex="1" parent="1">
          <mxGeometry x="470" y="497.5" width="120" height="60" as="geometry" />
        </mxCell>
        <mxCell id="iRqPwsFNaqmVoj-4rcDJ-159" value="" style="endArrow=none;html=1;rounded=0;" edge="1" parent="1" source="iRqPwsFNaqmVoj-4rcDJ-158" target="iRqPwsFNaqmVoj-4rcDJ-51">
          <mxGeometry relative="1" as="geometry">
            <mxPoint x="370" y="430" as="sourcePoint" />
            <mxPoint x="530" y="430" as="targetPoint" />
          </mxGeometry>
        </mxCell>
        <mxCell id="iRqPwsFNaqmVoj-4rcDJ-160" value="" style="endArrow=none;html=1;rounded=0;" edge="1" parent="1" source="iRqPwsFNaqmVoj-4rcDJ-158" target="iRqPwsFNaqmVoj-4rcDJ-131">
          <mxGeometry relative="1" as="geometry">
            <mxPoint x="55" y="425" as="sourcePoint" />
            <mxPoint x="215" y="425" as="targetPoint" />
          </mxGeometry>
        </mxCell>
        <mxCell id="iRqPwsFNaqmVoj-4rcDJ-161" value="filmed_in" style="shape=rhombus;perimeter=rhombusPerimeter;whiteSpace=wrap;html=1;align=center;" vertex="1" parent="1">
          <mxGeometry x="365" y="557.5" width="120" height="60" as="geometry" />
        </mxCell>
        <mxCell id="iRqPwsFNaqmVoj-4rcDJ-162" value="" style="endArrow=none;html=1;rounded=0;" edge="1" parent="1" source="iRqPwsFNaqmVoj-4rcDJ-161" target="iRqPwsFNaqmVoj-4rcDJ-125">
          <mxGeometry relative="1" as="geometry">
            <mxPoint x="150" y="550" as="sourcePoint" />
            <mxPoint x="310" y="550" as="targetPoint" />
          </mxGeometry>
        </mxCell>
        <mxCell id="iRqPwsFNaqmVoj-4rcDJ-163" value="" style="endArrow=none;html=1;rounded=0;" edge="1" parent="1" source="iRqPwsFNaqmVoj-4rcDJ-51" target="iRqPwsFNaqmVoj-4rcDJ-161">
          <mxGeometry relative="1" as="geometry">
            <mxPoint x="410" y="440" as="sourcePoint" />
            <mxPoint x="570" y="440" as="targetPoint" />
          </mxGeometry>
        </mxCell>
        <mxCell id="iRqPwsFNaqmVoj-4rcDJ-164" value="UNKNOWN" style="shape=rhombus;perimeter=rhombusPerimeter;whiteSpace=wrap;html=1;align=center;" vertex="1" parent="1">
          <mxGeometry x="325" y="370" width="120" height="60" as="geometry" />
        </mxCell>
        <mxCell id="iRqPwsFNaqmVoj-4rcDJ-165" value="" style="endArrow=none;html=1;rounded=0;" edge="1" parent="1" source="iRqPwsFNaqmVoj-4rcDJ-120" target="iRqPwsFNaqmVoj-4rcDJ-164">
          <mxGeometry relative="1" as="geometry">
            <mxPoint x="310" y="440" as="sourcePoint" />
            <mxPoint x="470" y="440" as="targetPoint" />
          </mxGeometry>
        </mxCell>
        <mxCell id="iRqPwsFNaqmVoj-4rcDJ-166" value="" style="endArrow=none;html=1;rounded=0;" edge="1" parent="1" source="iRqPwsFNaqmVoj-4rcDJ-164" target="iRqPwsFNaqmVoj-4rcDJ-51">
          <mxGeometry relative="1" as="geometry">
            <mxPoint x="370" y="400" as="sourcePoint" />
            <mxPoint x="530" y="400" as="targetPoint" />
          </mxGeometry>
        </mxCell>
        <mxCell id="iRqPwsFNaqmVoj-4rcDJ-168" value="UNKNOWN" style="shape=rhombus;perimeter=rhombusPerimeter;whiteSpace=wrap;html=1;align=center;" vertex="1" parent="1">
          <mxGeometry x="280" y="498" width="120" height="60" as="geometry" />
        </mxCell>
        <mxCell id="iRqPwsFNaqmVoj-4rcDJ-169" value="" style="endArrow=none;html=1;rounded=0;" edge="1" parent="1" source="iRqPwsFNaqmVoj-4rcDJ-168" target="iRqPwsFNaqmVoj-4rcDJ-115">
          <mxGeometry relative="1" as="geometry">
            <mxPoint x="10" y="740" as="sourcePoint" />
            <mxPoint x="170" y="740" as="targetPoint" />
          </mxGeometry>
        </mxCell>
        <mxCell id="iRqPwsFNaqmVoj-4rcDJ-170" value="" style="endArrow=none;html=1;rounded=0;" edge="1" parent="1" source="iRqPwsFNaqmVoj-4rcDJ-168" target="iRqPwsFNaqmVoj-4rcDJ-51">
          <mxGeometry relative="1" as="geometry">
            <mxPoint x="60" y="720" as="sourcePoint" />
            <mxPoint x="220" y="720" as="targetPoint" />
          </mxGeometry>
        </mxCell>
      </root>
    </mxGraphModel>
  </diagram>
</mxfile>
